# Blender v2.76 (sub 0) OBJ File: 'bookstand_withbook_closed.blend'
# www.blender.org
mtllib bookstand_withbook_closed.mtl
o Cube_Cube.002
v 0.844898 0.183085 0.222647
v 0.844898 0.860031 0.640157
v 0.160000 0.860031 0.640157
v 0.160000 0.183085 0.222647
v 0.844898 0.235889 0.137725
v 0.844898 0.912836 0.555235
v 0.160000 0.912836 0.555235
v 0.160000 0.235889 0.137725
v 0.844959 0.173617 0.229182
v 0.844959 0.860438 0.652782
v 0.155041 0.860438 0.652782
v 0.155041 0.173617 0.229182
v 0.844959 0.178655 0.218714
v 0.844959 0.865476 0.642314
v 0.155041 0.865476 0.642314
v 0.155041 0.178655 0.218714
v 0.100000 0.100000 0.100000
v 0.100000 0.100000 0.900000
v 0.900000 0.100000 0.900000
v 0.900000 0.100000 0.100000
v 0.100000 0.000000 0.100000
v 0.100000 0.000000 0.900000
v 0.900000 0.000000 0.900000
v 0.900000 0.000000 0.100000
v 0.960000 0.120687 0.312290
v 0.960000 0.815403 0.742088
v 0.040000 0.815403 0.742088
v 0.040000 0.120687 0.312290
v 0.960000 0.173492 0.227368
v 0.960000 0.868207 0.657166
v 0.040000 0.868207 0.657166
v 0.040000 0.173492 0.227368
v 0.960000 0.097666 0.297554
v 0.960000 0.120766 0.312431
v 0.040000 0.120766 0.312431
v 0.040000 0.097666 0.297554
v 0.960000 0.201307 0.130825
v 0.960000 0.224407 0.145702
v 0.040000 0.224407 0.145702
v 0.040000 0.201307 0.130825
v 0.200000 0.100000 0.330000
v 0.200000 0.100000 0.630000
v 0.150000 0.100000 0.630000
v 0.150000 0.100000 0.330000
v 0.200000 0.157747 0.330000
v 0.200000 0.638452 0.630000
v 0.150000 0.638452 0.630000
v 0.150000 0.157747 0.330000
v 0.850000 0.100000 0.330000
v 0.850000 0.100000 0.630000
v 0.800000 0.100000 0.630000
v 0.800000 0.100000 0.330000
v 0.850000 0.157747 0.330000
v 0.850000 0.638452 0.630000
v 0.800000 0.638452 0.630000
v 0.800000 0.157747 0.330000
v 0.844917 0.916848 0.560212
v 0.844959 0.230376 0.134457
v 0.835041 0.179259 0.220154
v 0.834998 0.865731 0.645910
v 0.844917 0.865731 0.645910
v 0.844959 0.179259 0.220154
v 0.835041 0.230376 0.134457
v 0.834998 0.916848 0.560212
v 0.844959 0.230040 0.136649
v 0.844959 0.916860 0.560248
v 0.155041 0.916860 0.560249
v 0.155041 0.230040 0.136649
v 0.844959 0.235078 0.126181
v 0.844959 0.921898 0.549781
v 0.155041 0.921898 0.549781
v 0.155041 0.235078 0.126181
vt 0.042965 0.609729
vt 0.042965 0.869548
vt 0.354605 0.869548
vt 0.354605 0.609729
vt 0.371830 0.633115
vt 0.371830 0.851901
vt 0.109406 0.851901
vt 0.109406 0.633115
vt 0.444114 0.986991
vt 0.444114 0.519821
vt 0.396397 0.519821
vt 0.396397 0.986991
vt 0.529507 0.518567
vt 0.525994 0.984077
vt 0.979164 0.981917
vt 0.982677 0.516407
vt 0.472603 0.518750
vt 0.472603 0.965563
vt 0.426966 0.965563
vt 0.426966 0.518750
vt 0.398187 0.974075
vt 0.398368 0.524050
vt 0.453456 0.523947
vt 0.453275 0.973973
vt 0.119415 0.169794
vt 0.119415 0.370220
vt 0.359816 0.370220
vt 0.359816 0.169794
vt 0.373103 0.187834
vt 0.373103 0.356607
vt 0.170668 0.356607
vt 0.170668 0.187834
vt 0.428863 0.460816
vt 0.428863 0.100439
vt 0.392054 0.100439
vt 0.392054 0.460816
vt 0.500984 0.053579
vt 0.498002 0.448738
vt 0.882687 0.446905
vt 0.885669 0.051746
vt 0.450840 0.099612
vt 0.450840 0.444286
vt 0.415635 0.444286
vt 0.415635 0.099612
vt 0.393435 0.450853
vt 0.393575 0.103701
vt 0.436070 0.103622
vt 0.435930 0.450774
vt 0.031722 0.058399
vt 0.031722 0.992955
vt 0.966278 0.992955
vt 0.966278 0.058399
vt 0.492290 0.063125
vt 0.488870 0.990221
vt 0.372983 0.989793
vt 0.376403 0.062698
vt 0.967709 0.331607
vt 0.019425 0.331175
vt 0.019371 0.449710
vt 0.967655 0.450142
vt 0.008055 0.128546
vt 0.008055 0.947163
vt 0.989945 0.947163
vt 0.989945 0.128546
vt 0.989945 0.092043
vt 0.989945 0.910660
vt 0.008055 0.910660
vt 0.008055 0.092043
vt 0.048435 0.697582
vt 0.979095 0.697582
vt 0.979095 0.602524
vt 0.048435 0.602524
vt 0.427144 0.090642
vt 0.420851 0.924528
vt 0.522930 0.925067
vt 0.529222 0.091181
vt 0.979095 0.413186
vt 0.048435 0.413186
vt 0.048435 0.318128
vt 0.979095 0.318128
vt 0.119168 0.921027
vt 0.119501 0.094871
vt 0.220631 0.094683
vt 0.220299 0.920838
vt 0.017978 0.421674
vt 0.017978 0.448686
vt 0.975100 0.448686
vt 0.975100 0.421674
vt 0.975100 0.351795
vt 0.975100 0.378807
vt 0.017978 0.378807
vt 0.017978 0.351795
vt 0.030522 0.898494
vt 0.967478 0.898494
vt 0.967478 0.710627
vt 0.030522 0.710627
vt 0.110921 0.892851
vt 0.138390 0.893450
vt 0.145808 0.697274
vt 0.118338 0.696676
vt 0.967478 0.889342
vt 0.030522 0.889342
vt 0.030522 0.701475
vt 0.967478 0.701475
vt 0.559349 0.309158
vt 0.559349 0.707968
vt 0.492880 0.707968
vt 0.492880 0.309158
vt 0.763911 0.738460
vt 0.805671 0.738460
vt 0.805671 0.575780
vt 0.763911 0.575780
vt 0.103423 0.660811
vt 0.425792 0.779629
vt 0.425792 0.570328
vt 0.103423 0.570328
vt 0.805671 0.646108
vt 0.763911 0.646108
vt 0.126295 0.169816
vt 0.126295 0.704071
vt 0.037252 0.704071
vt 0.037252 0.169816
vt 0.830618 0.744920
vt 0.886562 0.744920
vt 0.886562 0.526990
vt 0.830618 0.526990
vt 0.059524 0.676340
vt 0.420476 0.809379
vt 0.420476 0.575029
vt 0.059524 0.575029
vt 0.886562 0.621203
vt 0.830618 0.621203
vn 0.000000 -0.524900 0.851100
vn -0.000000 0.524900 -0.851100
vn 0.000000 0.849200 0.528000
vn 1.000000 0.000000 -0.000000
vn -0.000000 -0.849200 -0.528000
vn -1.000000 -0.000000 0.000000
vn 0.000000 0.901100 0.433700
vn -0.000000 -0.901100 -0.433700
vn -0.000000 0.527100 -0.849800
vn 0.000000 0.858800 0.512300
vn 0.000000 -0.527100 0.849800
vn -0.000000 -0.858800 -0.512300
vn 0.000000 -1.000000 0.000000
vn 0.000000 0.000000 1.000000
vn -0.000000 0.000000 -1.000000
vn 0.000000 1.000000 -0.000000
vn 0.000000 -0.526100 0.850400
vn -0.000000 0.526100 -0.850400
vn 0.000000 -0.541500 0.840700
vn -0.000000 0.541500 -0.840700
vn 0.000000 0.849300 0.527900
vn -0.000000 -0.849300 -0.527900
vn 0.000000 0.529400 -0.848300
usemtl None
s off
f 1/1/1 2/2/1 3/3/1 4/4/1
f 8/5/2 7/6/2 6/7/2 5/8/2
f 6/9/3 7/10/3 3/11/3 2/12/3
f 5/13/4 6/14/4 2/15/4 1/16/4
f 8/17/5 5/18/5 1/19/5 4/20/5
f 7/21/6 8/22/6 4/23/6 3/24/6
f 9/25/1 10/26/1 11/27/1 12/28/1
f 16/29/2 15/30/2 14/31/2 13/32/2
f 14/33/7 15/34/7 11/35/7 10/36/7
f 13/37/4 14/38/4 10/39/4 9/40/4
f 16/41/8 13/42/8 9/43/8 12/44/8
f 15/45/6 16/46/6 12/47/6 11/48/6
f 58/37/4 57/38/4 61/39/4 62/40/4
f 63/29/9 64/30/9 57/31/9 58/32/9
f 57/33/10 64/34/10 60/35/10 61/36/10
f 62/25/11 61/26/11 60/27/11 59/28/11
f 63/41/12 58/42/12 62/43/12 59/44/12
f 64/45/6 63/46/6 59/47/6 60/48/6
f 65/25/1 66/26/1 67/27/1 68/28/1
f 72/29/2 71/30/2 70/31/2 69/32/2
f 70/33/7 71/34/7 67/35/7 66/36/7
f 69/37/4 70/38/4 66/39/4 65/40/4
f 72/41/8 69/42/8 65/43/8 68/44/8
f 71/45/6 72/46/6 68/47/6 67/48/6
usemtl None_planks_workbench.png.001
f 24/49/13 23/50/13 22/51/13 21/52/13
f 18/53/6 17/54/6 21/55/6 22/56/6
f 19/57/14 18/58/14 22/59/14 23/60/14
f 17/58/15 20/57/15 24/60/15 21/59/15
f 17/52/16 18/51/16 19/50/16 20/49/16
f 20/54/4 19/53/4 23/56/4 24/55/4
f 25/61/17 26/62/17 27/63/17 28/64/17
f 32/65/18 31/66/18 30/67/18 29/68/18
f 30/69/3 31/70/3 27/71/3 26/72/3
f 29/73/4 30/74/4 26/75/4 25/76/4
f 32/77/5 29/78/5 25/79/5 28/80/5
f 31/81/6 32/82/6 28/83/6 27/84/6
f 33/85/19 34/86/19 35/87/19 36/88/19
f 40/89/20 39/90/20 38/91/20 37/92/20
f 38/93/21 39/94/21 35/95/21 34/96/21
f 37/97/4 38/98/4 34/99/4 33/100/4
f 40/101/22 37/102/22 33/103/22 36/104/22
f 39/98/6 40/97/6 36/100/6 35/99/6
f 48/105/23 47/106/23 46/107/23 45/108/23
f 41/108/13 42/107/13 43/106/13 44/105/13
f 46/109/14 47/110/14 43/111/14 42/112/14
f 45/113/4 46/114/4 42/115/4 41/116/4
f 48/117/15 45/118/15 41/112/15 44/111/15
f 47/114/6 48/113/6 44/116/6 43/115/6
f 56/119/23 55/120/23 54/121/23 53/122/23
f 49/122/13 50/121/13 51/120/13 52/119/13
f 54/123/14 55/124/14 51/125/14 50/126/14
f 53/127/4 54/128/4 50/129/4 49/130/4
f 56/131/15 53/132/15 49/126/15 52/125/15
f 55/128/6 56/127/6 52/130/6 51/129/6
