# Blender v2.77 (sub 0) OBJ File: 'bookstand.blend'
# www.blender.org
mtllib bookstand.mtl
o Cube_Cube.002
v 0.960000 0.020687 0.312290
v 0.960000 0.715403 0.742088
v 0.040000 0.715403 0.742088
v 0.040000 0.020687 0.312290
v 0.960000 0.073492 0.227368
v 0.960000 0.768207 0.657166
v 0.040000 0.768207 0.657166
v 0.040000 0.073492 0.227368
v 0.960000 -0.002334 0.297554
v 0.960000 0.020766 0.312431
v 0.040000 0.020766 0.312431
v 0.040000 -0.002334 0.297554
v 0.960000 0.101307 0.130825
v 0.960000 0.124407 0.145702
v 0.040000 0.124407 0.145702
v 0.040000 0.101307 0.130825
v 0.250000 0.000000 0.330000
v 0.250000 0.000000 0.630000
v 0.150000 0.000000 0.630000
v 0.150000 0.000000 0.330000
v 0.250000 0.057747 0.330000
v 0.250000 0.538452 0.630000
v 0.150000 0.538452 0.630000
v 0.150000 0.057747 0.330000
v 0.850000 0.000000 0.330000
v 0.850000 0.000000 0.630000
v 0.750000 0.000000 0.630000
v 0.750000 0.000000 0.330000
v 0.850000 0.057747 0.330000
v 0.850000 0.538452 0.630000
v 0.750000 0.538452 0.630000
v 0.750000 0.057747 0.330000
vt 0.0081 0.1285
vt 0.0081 0.9472
vt 0.9899 0.9472
vt 0.9899 0.1285
vt 0.9899 0.0920
vt 0.9899 0.9107
vt 0.0081 0.9107
vt 0.0081 0.0920
vt 0.0484 0.6976
vt 0.9791 0.6976
vt 0.9791 0.6025
vt 0.0484 0.6025
vt 0.4271 0.0906
vt 0.4209 0.9245
vt 0.5229 0.9251
vt 0.5292 0.0912
vt 0.9791 0.4132
vt 0.0484 0.4132
vt 0.0484 0.3181
vt 0.9791 0.3181
vt 0.1192 0.9210
vt 0.1195 0.0949
vt 0.2206 0.0947
vt 0.2203 0.9208
vt 0.0180 0.4217
vt 0.0180 0.4487
vt 0.9751 0.4487
vt 0.9751 0.4217
vt 0.9751 0.3518
vt 0.9751 0.3788
vt 0.0180 0.3788
vt 0.0180 0.3518
vt 0.0305 0.8985
vt 0.9675 0.8985
vt 0.9675 0.7106
vt 0.0305 0.7106
vt 0.1109 0.8929
vt 0.1384 0.8935
vt 0.1458 0.6973
vt 0.1183 0.6967
vt 0.9675 0.8893
vt 0.0305 0.8893
vt 0.0305 0.7015
vt 0.9675 0.7015
vt 0.1384 0.8935
vt 0.1109 0.8929
vt 0.1183 0.6967
vt 0.1458 0.6973
vt 0.5593 0.3092
vt 0.5593 0.7080
vt 0.4929 0.7080
vt 0.4929 0.3092
vt 0.4929 0.3092
vt 0.4929 0.7080
vt 0.5593 0.7080
vt 0.5593 0.3092
vt 0.7639 0.7385
vt 0.8057 0.7385
vt 0.8057 0.5758
vt 0.7639 0.5758
vt 0.1034 0.6608
vt 0.4258 0.7796
vt 0.4258 0.5703
vt 0.1034 0.5703
vt 0.8057 0.6461
vt 0.7639 0.6461
vt 0.7639 0.5758
vt 0.8057 0.5758
vt 0.4258 0.7796
vt 0.1034 0.6608
vt 0.1034 0.5703
vt 0.4258 0.5703
vt 0.1263 0.1698
vt 0.1263 0.7041
vt 0.0373 0.7041
vt 0.0373 0.1698
vt 0.0373 0.1698
vt 0.0373 0.7041
vt 0.1263 0.7041
vt 0.1263 0.1698
vt 0.8306 0.7449
vt 0.8866 0.7449
vt 0.8866 0.5270
vt 0.8306 0.5270
vt 0.0595 0.6763
vt 0.4205 0.8094
vt 0.4205 0.5750
vt 0.0595 0.5750
vt 0.8866 0.6212
vt 0.8306 0.6212
vt 0.8306 0.5270
vt 0.8866 0.5270
vt 0.4205 0.8094
vt 0.0595 0.6763
vt 0.0595 0.5750
vt 0.4205 0.5750
vn 0.0000 -0.5261 0.8504
vn -0.0000 0.5261 -0.8504
vn 0.0000 0.8492 0.5280
vn 1.0000 0.0000 -0.0000
vn -0.0000 -0.8492 -0.5280
vn -1.0000 0.0000 0.0000
vn 0.0000 -0.5415 0.8407
vn -0.0000 0.5415 -0.8407
vn 0.0000 0.8493 0.5279
vn -0.0000 -0.8493 -0.5279
vn 0.0000 0.5294 -0.8483
vn 0.0000 -1.0000 0.0000
vn 0.0000 0.0000 1.0000
vn 0.0000 0.0000 -1.0000
usemtl None
s off
f 1/1/1 2/2/1 3/3/1 4/4/1
f 8/5/2 7/6/2 6/7/2 5/8/2
f 6/9/3 7/10/3 3/11/3 2/12/3
f 5/13/4 6/14/4 2/15/4 1/16/4
f 8/17/5 5/18/5 1/19/5 4/20/5
f 7/21/6 8/22/6 4/23/6 3/24/6
f 9/25/7 10/26/7 11/27/7 12/28/7
f 16/29/8 15/30/8 14/31/8 13/32/8
f 14/33/9 15/34/9 11/35/9 10/36/9
f 13/37/4 14/38/4 10/39/4 9/40/4
f 16/41/10 13/42/10 9/43/10 12/44/10
f 15/45/6 16/46/6 12/47/6 11/48/6
f 24/49/11 23/50/11 22/51/11 21/52/11
f 17/53/12 18/54/12 19/55/12 20/56/12
f 22/57/13 23/58/13 19/59/13 18/60/13
f 21/61/4 22/62/4 18/63/4 17/64/4
f 24/65/14 21/66/14 17/67/14 20/68/14
f 23/69/6 24/70/6 20/71/6 19/72/6
f 32/73/11 31/74/11 30/75/11 29/76/11
f 25/77/12 26/78/12 27/79/12 28/80/12
f 30/81/13 31/82/13 27/83/13 26/84/13
f 29/85/4 30/86/4 26/87/4 25/88/4
f 32/89/14 29/90/14 25/91/14 28/92/14
f 31/93/6 32/94/6 28/95/6 27/96/6
