# Blender v2.77 (sub 0) OBJ File: 'bookstand_withbook.blend'
# www.blender.org
mtllib bookstand_withbook.mtl
o Cube_Cube.002
v 0.844898 0.083085 0.222647
v 0.844898 0.760031 0.640157
v 0.160000 0.760031 0.640157
v 0.160000 0.083085 0.222647
v 0.844898 0.135889 0.137725
v 0.844898 0.812836 0.555235
v 0.160000 0.812836 0.555235
v 0.160000 0.135889 0.137725
v 0.844959 0.073617 0.229182
v 0.844959 0.760438 0.652782
v 0.155041 0.760438 0.652782
v 0.155041 0.073617 0.229182
v 0.844959 0.078655 0.218714
v 0.844959 0.765476 0.642314
v 0.155041 0.765476 0.642314
v 0.155041 0.078655 0.218714
v 0.960000 0.020687 0.312290
v 0.960000 0.715403 0.742088
v 0.040000 0.715403 0.742088
v 0.040000 0.020687 0.312290
v 0.960000 0.073492 0.227368
v 0.960000 0.768207 0.657166
v 0.040000 0.768207 0.657166
v 0.040000 0.073492 0.227368
v 0.960000 -0.002334 0.297554
v 0.960000 0.020766 0.312431
v 0.040000 0.020766 0.312431
v 0.040000 -0.002334 0.297554
v 0.960000 0.101307 0.130825
v 0.960000 0.124407 0.145702
v 0.040000 0.124407 0.145702
v 0.040000 0.101307 0.130825
v 0.250000 0.000000 0.330000
v 0.250000 0.000000 0.630000
v 0.150000 0.000000 0.630000
v 0.150000 0.000000 0.330000
v 0.250000 0.057747 0.330000
v 0.250000 0.538452 0.630000
v 0.150000 0.538452 0.630000
v 0.150000 0.057747 0.330000
v 0.850000 0.000000 0.330000
v 0.850000 0.000000 0.630000
v 0.750000 0.000000 0.630000
v 0.750000 0.000000 0.330000
v 0.850000 0.057747 0.330000
v 0.850000 0.538452 0.630000
v 0.750000 0.538452 0.630000
v 0.750000 0.057747 0.330000
v 0.217713 0.135701 0.137847
v 0.217685 0.137756 0.134441
v 0.160000 0.187522 0.169407
v 0.160742 0.136482 0.137456
v 0.159972 0.189577 0.166002
v 0.160714 0.138536 0.134050
v 0.844243 0.187558 0.168973
v 0.842189 0.187503 0.165567
v 0.793173 0.137145 0.137102
v 0.845230 0.137007 0.137702
v 0.791119 0.138331 0.133909
v 0.843176 0.138398 0.134592
vt 0.0430 0.6097
vt 0.0430 0.8695
vt 0.3546 0.8695
vt 0.3546 0.6097
vt 0.3718 0.6331
vt 0.3718 0.8519
vt 0.1094 0.8519
vt 0.1094 0.6331
vt 0.4441 0.9870
vt 0.4441 0.5198
vt 0.3964 0.5198
vt 0.3964 0.9870
vt 0.5295 0.5186
vt 0.5260 0.9841
vt 0.9792 0.9819
vt 0.9827 0.5164
vt 0.4726 0.5187
vt 0.4726 0.9656
vt 0.4270 0.9656
vt 0.4270 0.5187
vt 0.3982 0.9741
vt 0.3984 0.5240
vt 0.4535 0.5239
vt 0.4533 0.9740
vt 0.1194 0.1698
vt 0.1194 0.3702
vt 0.3598 0.3702
vt 0.3598 0.1698
vt 0.3731 0.1878
vt 0.3731 0.3566
vt 0.1707 0.3566
vt 0.1707 0.1878
vt 0.4289 0.4608
vt 0.4289 0.1004
vt 0.3921 0.1004
vt 0.3921 0.4608
vt 0.5010 0.0536
vt 0.4980 0.4487
vt 0.8827 0.4469
vt 0.8857 0.0517
vt 0.4508 0.0996
vt 0.4508 0.4443
vt 0.4156 0.4443
vt 0.4156 0.0996
vt 0.3934 0.4509
vt 0.3936 0.1037
vt 0.4361 0.1036
vt 0.4359 0.4508
vt 0.4688 0.7489
vt 0.4687 0.6622
vt 0.3964 0.7490
vt 0.4688 0.7489
vt 0.3964 0.7490
vt 0.4687 0.6622
vt 0.4688 0.7489
vt 0.4687 0.6622
vt 0.3964 0.7490
vt 0.4688 0.7489
vt 0.3964 0.7490
vt 0.4687 0.6622
vt 0.0081 0.1285
vt 0.0081 0.9472
vt 0.9899 0.9472
vt 0.9899 0.1285
vt 0.9899 0.0920
vt 0.9899 0.9107
vt 0.0081 0.9107
vt 0.0081 0.0920
vt 0.0484 0.6976
vt 0.9791 0.6976
vt 0.9791 0.6025
vt 0.0484 0.6025
vt 0.4271 0.0906
vt 0.4209 0.9245
vt 0.5229 0.9251
vt 0.5292 0.0912
vt 0.9791 0.4132
vt 0.0484 0.4132
vt 0.0484 0.3181
vt 0.9791 0.3181
vt 0.1192 0.9210
vt 0.1195 0.0949
vt 0.2206 0.0947
vt 0.2203 0.9208
vt 0.0180 0.4217
vt 0.0180 0.4487
vt 0.9751 0.4487
vt 0.9751 0.4217
vt 0.9751 0.3518
vt 0.9751 0.3788
vt 0.0180 0.3788
vt 0.0180 0.3518
vt 0.0305 0.8985
vt 0.9675 0.8985
vt 0.9675 0.7106
vt 0.0305 0.7106
vt 0.1109 0.8929
vt 0.1384 0.8935
vt 0.1458 0.6973
vt 0.1183 0.6967
vt 0.9675 0.8893
vt 0.0305 0.8893
vt 0.0305 0.7015
vt 0.9675 0.7015
vt 0.1384 0.8935
vt 0.1109 0.8929
vt 0.1183 0.6967
vt 0.1458 0.6973
vt 0.5593 0.3092
vt 0.5593 0.7080
vt 0.4929 0.7080
vt 0.4929 0.3092
vt 0.4929 0.3092
vt 0.4929 0.7080
vt 0.5593 0.7080
vt 0.5593 0.3092
vt 0.7639 0.7385
vt 0.8057 0.7385
vt 0.8057 0.5758
vt 0.7639 0.5758
vt 0.1034 0.6608
vt 0.4258 0.7796
vt 0.4258 0.5703
vt 0.1034 0.5703
vt 0.8057 0.6461
vt 0.7639 0.6461
vt 0.7639 0.5758
vt 0.8057 0.5758
vt 0.4258 0.7796
vt 0.1034 0.6608
vt 0.1034 0.5703
vt 0.4258 0.5703
vt 0.1263 0.1698
vt 0.1263 0.7041
vt 0.0373 0.7041
vt 0.0373 0.1698
vt 0.0373 0.1698
vt 0.0373 0.7041
vt 0.1263 0.7041
vt 0.1263 0.1698
vt 0.8306 0.7449
vt 0.8866 0.7449
vt 0.8866 0.5270
vt 0.8306 0.5270
vt 0.0595 0.6763
vt 0.4205 0.8094
vt 0.4205 0.5750
vt 0.0595 0.5750
vt 0.8866 0.6212
vt 0.8306 0.6212
vt 0.8306 0.5270
vt 0.8866 0.5270
vt 0.4205 0.8094
vt 0.0595 0.6763
vt 0.0595 0.5750
vt 0.4205 0.5750
vn 0.0000 -0.5249 0.8511
vn -0.0000 0.5249 -0.8511
vn 0.0000 0.8492 0.5280
vn 1.0000 0.0000 -0.0000
vn -0.0000 -0.8492 -0.5280
vn -1.0000 -0.0000 0.0000
vn 0.0000 0.9011 0.4337
vn -0.0000 -0.9011 -0.4337
vn -0.0131 -0.5307 0.8475
vn 0.0131 0.5307 -0.8475
vn 0.7245 0.5928 0.3516
vn -0.9999 -0.0143 -0.0003
vn -0.0082 -0.8563 -0.5164
vn -0.0112 -0.5262 0.8503
vn 0.0104 0.5336 -0.8457
vn -0.7374 0.4179 0.5306
vn 0.0041 -0.9247 -0.3806
vn 0.8325 0.3052 -0.4623
vn 0.0000 -0.5261 0.8504
vn -0.0000 0.5261 -0.8504
vn 0.0000 -0.5415 0.8407
vn -0.0000 0.5415 -0.8407
vn 0.0000 0.8493 0.5279
vn -0.0000 -0.8493 -0.5279
vn 0.0000 0.5294 -0.8483
vn 0.0000 -1.0000 0.0000
vn 0.0000 0.0000 1.0000
vn 0.0000 0.0000 -1.0000
usemtl None
s off
f 1/1/1 2/2/1 3/3/1 4/4/1
f 8/5/2 7/6/2 6/7/2 5/8/2
f 6/9/3 7/10/3 3/11/3 2/12/3
f 5/13/4 6/14/4 2/15/4 1/16/4
f 8/17/5 5/18/5 1/19/5 4/20/5
f 7/21/6 8/22/6 4/23/6 3/24/6
f 9/25/1 10/26/1 11/27/1 12/28/1
f 16/29/2 15/30/2 14/31/2 13/32/2
f 14/33/7 15/34/7 11/35/7 10/36/7
f 13/37/4 14/38/4 10/39/4 9/40/4
f 16/41/8 13/42/8 9/43/8 12/44/8
f 15/45/6 16/46/6 12/47/6 11/48/6
f 52/49/9 49/50/9 51/51/9
f 54/52/10 53/53/10 50/54/10
f 51/51/11 49/50/11 50/54/11 53/53/11
f 52/49/12 51/51/12 53/53/12 54/52/12
f 49/50/13 52/49/13 54/52/13 50/54/13
f 58/55/14 55/56/14 57/57/14
f 60/58/15 59/59/15 56/60/15
f 57/57/16 55/56/16 56/60/16 59/59/16
f 58/55/17 57/57/17 59/59/17 60/58/17
f 55/56/18 58/55/18 60/58/18 56/60/18
usemtl None_planks_workbench.png.001
f 17/61/19 18/62/19 19/63/19 20/64/19
f 24/65/20 23/66/20 22/67/20 21/68/20
f 22/69/3 23/70/3 19/71/3 18/72/3
f 21/73/4 22/74/4 18/75/4 17/76/4
f 24/77/5 21/78/5 17/79/5 20/80/5
f 23/81/6 24/82/6 20/83/6 19/84/6
f 25/85/21 26/86/21 27/87/21 28/88/21
f 32/89/22 31/90/22 30/91/22 29/92/22
f 30/93/23 31/94/23 27/95/23 26/96/23
f 29/97/4 30/98/4 26/99/4 25/100/4
f 32/101/24 29/102/24 25/103/24 28/104/24
f 31/105/6 32/106/6 28/107/6 27/108/6
f 40/109/25 39/110/25 38/111/25 37/112/25
f 33/113/26 34/114/26 35/115/26 36/116/26
f 38/117/27 39/118/27 35/119/27 34/120/27
f 37/121/4 38/122/4 34/123/4 33/124/4
f 40/125/28 37/126/28 33/127/28 36/128/28
f 39/129/6 40/130/6 36/131/6 35/132/6
f 48/133/25 47/134/25 46/135/25 45/136/25
f 41/137/26 42/138/26 43/139/26 44/140/26
f 46/141/27 47/142/27 43/143/27 42/144/27
f 45/145/4 46/146/4 42/147/4 41/148/4
f 48/149/28 45/150/28 41/151/28 44/152/28
f 47/153/6 48/154/6 44/155/6 43/156/6
